{
    "patcher": {
        "fileversion": 1,
        "appversion": {
            "major": 9,
            "minor": 2,
            "revision": 0,
            "architecture": "x64",
            "modernui": 1
        },
        "classnamespace": "box",
        "rect": [ 286.0, 267.0, 1228.0, 655.0 ],
        "boxes": [
            {
                "box": {
                    "id": "obj-40",
                    "maxclass": "message",
                    "numinlets": 2,
                    "numoutlets": 1,
                    "outlettype": [ "" ],
                    "patching_rect": [ 498.00001484155655, 77.33333563804626, 53.0, 22.0 ],
                    "text": "deselect"
                }
            },
            {
                "box": {
                    "id": "obj-38",
                    "maxclass": "message",
                    "numinlets": 2,
                    "numoutlets": 1,
                    "outlettype": [ "" ],
                    "patching_rect": [ 616.0000183582306, 356.66667729616165, 50.0, 22.0 ],
                    "text": "select"
                }
            },
            {
                "box": {
                    "id": "obj-31",
                    "maxclass": "newobj",
                    "numinlets": 1,
                    "numoutlets": 3,
                    "outlettype": [ "bang", "bang", "" ],
                    "patching_rect": [ 615.3333516716957, 314.6666760444641, 40.0, 22.0 ],
                    "text": "t b b l"
                }
            },
            {
                "box": {
                    "id": "obj-30",
                    "maxclass": "newobj",
                    "numinlets": 1,
                    "numoutlets": 1,
                    "outlettype": [ "" ],
                    "patching_rect": [ 615.3333516716957, 286.0000085234642, 72.0, 22.0 ],
                    "text": "prepend set"
                }
            },
            {
                "box": {
                    "id": "obj-29",
                    "linecount": 2,
                    "maxclass": "textedit",
                    "numinlets": 1,
                    "numoutlets": 4,
                    "outlettype": [ "", "int", "", "" ],
                    "parameter_enable": 0,
                    "patching_rect": [ 615.3333516716957, 395.3333451151848, 100.0, 50.0 ],
                    "text": "\"object num3 is set to 47\""
                }
            },
            {
                "box": {
                    "id": "obj-12",
                    "maxclass": "newobj",
                    "numinlets": 1,
                    "numoutlets": 1,
                    "outlettype": [ "" ],
                    "patching_rect": [ 600.6666845679283, 182.66667211055756, 67.0, 22.0 ],
                    "text": "mousefilter"
                }
            },
            {
                "box": {
                    "id": "obj-1",
                    "maxclass": "newobj",
                    "numinlets": 1,
                    "numoutlets": 1,
                    "outlettype": [ "" ],
                    "patching_rect": [ 600.6666845679283, 148.6666710972786, 88.0, 22.0 ],
                    "text": "prepend speak"
                }
            },
            {
                "box": {
                    "id": "obj-28",
                    "maxclass": "newobj",
                    "numinlets": 1,
                    "numoutlets": 2,
                    "outlettype": [ "", "" ],
                    "patching_rect": [ 600.6666845679283, 214.66667306423187, 92.0, 22.0 ],
                    "text": "maxess.speech"
                }
            },
            {
                "box": {
                    "id": "obj-26",
                    "linecount": 2,
                    "maxclass": "message",
                    "numinlets": 2,
                    "numoutlets": 1,
                    "outlettype": [ "" ],
                    "patching_rect": [ 465.8333469430605, 287.0, 135.33333736658096, 35.0 ],
                    "text": "\"object num3 is set to 47\""
                }
            },
            {
                "box": {
                    "id": "obj-23",
                    "maxclass": "message",
                    "numinlets": 2,
                    "numoutlets": 1,
                    "outlettype": [ "" ],
                    "patching_rect": [ 475.00001360972715, 224.6666733622551, 50.0, 22.0 ],
                    "text": "number"
                }
            },
            {
                "box": {
                    "id": "obj-22",
                    "maxclass": "message",
                    "numinlets": 2,
                    "numoutlets": 1,
                    "outlettype": [ "" ],
                    "patching_rect": [ 450.3333469430605, 188.0000056028366, 50.0, 22.0 ],
                    "text": "47"
                }
            },
            {
                "box": {
                    "id": "obj-21",
                    "maxclass": "message",
                    "numinlets": 2,
                    "numoutlets": 1,
                    "outlettype": [ "" ],
                    "patching_rect": [ 426.00001269578934, 145.3333376646042, 50.0, 22.0 ],
                    "text": "num3"
                }
            },
            {
                "box": {
                    "color": [ 1.0, 0.1491314173, 0.0, 1.0 ],
                    "filename": "none",
                    "id": "obj-17",
                    "maxclass": "newobj",
                    "numinlets": 1,
                    "numoutlets": 4,
                    "outlettype": [ "", "", "", "" ],
                    "patching_rect": [ 456.6666802763939, 108.00000321865082, 68.33333333333331, 22.0 ],
                    "saved_object_attributes": {
                        "embed": 1,
                        "parameter_enable": 0
                    },
                    "text": "v8",
                    "textfile": {
                        "text": "outlets = 4;\n\nlet d = false;\n\nvar curobj = \"\";\n\n// array of callback functions listening to the UI objects.\n// when the named objects are changed, paramCallback() will run:\nconst listeners = [\n    new ParameterListener(\"num1\", paramCallback),\n    new ParameterListener(\"num2\", paramCallback),\n    new ParameterListener(\"num3\", paramCallback),\n];\n\n// callback function for all objects:\nfunction paramCallback(data)\n{\n    if(d) console.log(data); // print the entire callback JSON to the Max window\n    outlet(2, data.maxobject.maxclass); // what kind of (Max) object is it?\n    outlet(1, data.value); // what's its value?\n    outlet(0, data.name); // what is the object's scripting name\n    let outstr = \"object \" + data.name + \" is set to \" + data.value;\n    curobj = data.name;\n    outlet(3, outstr);\n}\n\n// debugger:\nfunction debug(_v)\n{\n    d = _v>0;\n}\n\nfunction deselect()\n{\n    let foo = this.patcher.getnamed(curobj);\n    foo.message(\"select\");\n}\n\n",
                        "filename": "none",
                        "flags": 0,
                        "embed": 1,
                        "autowatch": 1
                    },
                    "varname": "v8_AA"
                }
            },
            {
                "box": {
                    "id": "obj-14",
                    "maxclass": "newobj",
                    "numinlets": 2,
                    "numoutlets": 2,
                    "outlettype": [ "bang", "bang" ],
                    "patching_rect": [ 135.0, 159.0, 65.0, 22.0 ],
                    "text": "onebang 1"
                }
            },
            {
                "box": {
                    "id": "obj-13",
                    "maxclass": "newobj",
                    "numinlets": 2,
                    "numoutlets": 2,
                    "outlettype": [ "bang", "" ],
                    "patching_rect": [ 135.0, 124.0, 34.0, 22.0 ],
                    "text": "sel 9"
                }
            },
            {
                "box": {
                    "id": "obj-9",
                    "maxclass": "message",
                    "numinlets": 2,
                    "numoutlets": 1,
                    "outlettype": [ "" ],
                    "patching_rect": [ 349.0, 243.0, 73.0, 22.0 ],
                    "presentation_linecount": 3,
                    "text": "select, bang"
                }
            },
            {
                "box": {
                    "id": "obj-10",
                    "maxclass": "number",
                    "numinlets": 1,
                    "numoutlets": 2,
                    "outlettype": [ "", "bang" ],
                    "parameter_enable": 1,
                    "patching_rect": [ 349.0, 287.0, 50.0, 22.0 ],
                    "saved_attribute_attributes": {
                        "valueof": {
                            "parameter_invisible": 1,
                            "parameter_longname": "num3",
                            "parameter_modmode": 0,
                            "parameter_shortname": "num3",
                            "parameter_type": 3
                        }
                    },
                    "varname": "num3"
                }
            },
            {
                "box": {
                    "id": "obj-7",
                    "maxclass": "message",
                    "numinlets": 2,
                    "numoutlets": 1,
                    "outlettype": [ "" ],
                    "patching_rect": [ 271.0, 243.0, 73.0, 22.0 ],
                    "presentation_linecount": 3,
                    "text": "select, bang"
                }
            },
            {
                "box": {
                    "id": "obj-8",
                    "maxclass": "number",
                    "numinlets": 1,
                    "numoutlets": 2,
                    "outlettype": [ "", "bang" ],
                    "parameter_enable": 1,
                    "patching_rect": [ 271.0, 287.0, 50.0, 22.0 ],
                    "saved_attribute_attributes": {
                        "valueof": {
                            "parameter_invisible": 1,
                            "parameter_longname": "num2",
                            "parameter_modmode": 0,
                            "parameter_shortname": "num2",
                            "parameter_type": 3
                        }
                    },
                    "varname": "num2"
                }
            },
            {
                "box": {
                    "id": "obj-6",
                    "maxclass": "newobj",
                    "numinlets": 0,
                    "numoutlets": 4,
                    "outlettype": [ "int", "int", "int", "int" ],
                    "patching_rect": [ 135.0, 83.0, 50.5, 22.0 ],
                    "text": "key"
                }
            },
            {
                "box": {
                    "id": "obj-5",
                    "maxclass": "message",
                    "numinlets": 2,
                    "numoutlets": 1,
                    "outlettype": [ "" ],
                    "patching_rect": [ 192.0, 243.0, 73.0, 22.0 ],
                    "text": "select, bang"
                }
            },
            {
                "box": {
                    "id": "obj-3",
                    "maxclass": "number",
                    "numinlets": 1,
                    "numoutlets": 2,
                    "outlettype": [ "", "bang" ],
                    "parameter_enable": 1,
                    "patching_rect": [ 192.0, 287.0, 50.0, 22.0 ],
                    "saved_attribute_attributes": {
                        "valueof": {
                            "parameter_invisible": 1,
                            "parameter_longname": "num1",
                            "parameter_modmode": 0,
                            "parameter_shortname": "num1",
                            "parameter_type": 3
                        }
                    },
                    "varname": "num1"
                }
            }
        ],
        "lines": [
            {
                "patchline": {
                    "destination": [ "obj-12", 0 ],
                    "source": [ "obj-1", 0 ]
                }
            },
            {
                "patchline": {
                    "destination": [ "obj-5", 0 ],
                    "source": [ "obj-10", 1 ]
                }
            },
            {
                "patchline": {
                    "destination": [ "obj-28", 0 ],
                    "source": [ "obj-12", 0 ]
                }
            },
            {
                "patchline": {
                    "destination": [ "obj-14", 0 ],
                    "source": [ "obj-13", 0 ]
                }
            },
            {
                "patchline": {
                    "destination": [ "obj-5", 0 ],
                    "source": [ "obj-14", 0 ]
                }
            },
            {
                "patchline": {
                    "destination": [ "obj-21", 1 ],
                    "source": [ "obj-17", 0 ]
                }
            },
            {
                "patchline": {
                    "destination": [ "obj-22", 1 ],
                    "source": [ "obj-17", 1 ]
                }
            },
            {
                "patchline": {
                    "destination": [ "obj-23", 1 ],
                    "source": [ "obj-17", 2 ]
                }
            },
            {
                "patchline": {
                    "destination": [ "obj-26", 1 ],
                    "order": 1,
                    "source": [ "obj-17", 3 ]
                }
            },
            {
                "patchline": {
                    "destination": [ "obj-30", 0 ],
                    "order": 0,
                    "source": [ "obj-17", 3 ]
                }
            },
            {
                "patchline": {
                    "destination": [ "obj-7", 0 ],
                    "source": [ "obj-3", 1 ]
                }
            },
            {
                "patchline": {
                    "destination": [ "obj-31", 0 ],
                    "source": [ "obj-30", 0 ]
                }
            },
            {
                "patchline": {
                    "destination": [ "obj-29", 0 ],
                    "source": [ "obj-31", 2 ]
                }
            },
            {
                "patchline": {
                    "destination": [ "obj-38", 0 ],
                    "source": [ "obj-31", 1 ]
                }
            },
            {
                "patchline": {
                    "destination": [ "obj-40", 0 ],
                    "source": [ "obj-31", 0 ]
                }
            },
            {
                "patchline": {
                    "destination": [ "obj-29", 0 ],
                    "source": [ "obj-38", 0 ]
                }
            },
            {
                "patchline": {
                    "destination": [ "obj-17", 0 ],
                    "source": [ "obj-40", 0 ]
                }
            },
            {
                "patchline": {
                    "destination": [ "obj-3", 0 ],
                    "source": [ "obj-5", 0 ]
                }
            },
            {
                "patchline": {
                    "destination": [ "obj-13", 0 ],
                    "source": [ "obj-6", 0 ]
                }
            },
            {
                "patchline": {
                    "destination": [ "obj-8", 0 ],
                    "source": [ "obj-7", 0 ]
                }
            },
            {
                "patchline": {
                    "destination": [ "obj-9", 0 ],
                    "source": [ "obj-8", 1 ]
                }
            },
            {
                "patchline": {
                    "destination": [ "obj-10", 0 ],
                    "source": [ "obj-9", 0 ]
                }
            }
        ],
        "parameters": {
            "obj-10": [ "num3", "num3", 0 ],
            "obj-3": [ "num1", "num1", 0 ],
            "obj-8": [ "num2", "num2", 0 ],
            "parameterbanks": {
                "0": {
                    "index": 0,
                    "name": "",
                    "parameters": [ "-", "-", "-", "-", "-", "-", "-", "-" ],
                    "buttons": [ "-", "-", "-", "-", "-", "-", "-", "-" ]
                }
            },
            "inherited_shortname": 1
        },
        "autosave": 0
    }
}