{
    "patcher": {
        "fileversion": 1,
        "appversion": {
            "major": 9,
            "minor": 1,
            "revision": 3,
            "architecture": "x64",
            "modernui": 1
        },
        "classnamespace": "box",
        "rect": [ 59.0, 119.0, 1065.0, 784.0 ],
        "boxes": [
            {
                "box": {
                    "id": "obj-19",
                    "maxclass": "message",
                    "numinlets": 2,
                    "numoutlets": 1,
                    "outlettype": [ "" ],
                    "patching_rect": [ 441.5, 438.5, 35.0, 22.0 ],
                    "text": "clear"
                }
            },
            {
                "box": {
                    "addpoints": [ 0.0, 0.0, 0, 122.34042553191489, 0.38666666666666666, 0, 260.63829787234044, 0.4, 0, 340.4255319148936, 0.6266666666666667, 0, 460.1063829787234, 0.49333333333333335, 0, 614.3617021276596, 0.7266666666666667, 0, 678.1914893617021, 0.56, 0, 734.0425531914893, 0.31333333333333335, 0, 843.0851063829788, 0.6333333333333333, 0 ],
                    "classic_curve": 1,
                    "id": "obj-17",
                    "maxclass": "function",
                    "numinlets": 1,
                    "numoutlets": 4,
                    "outlettype": [ "float", "", "", "bang" ],
                    "parameter_enable": 1,
                    "patching_rect": [ 416.0, 468.5, 200.0, 100.0 ],
                    "saved_attribute_attributes": {
                        "valueof": {
                            "parameter_invisible": 1,
                            "parameter_longname": "fn",
                            "parameter_modmode": 0,
                            "parameter_shortname": "fn",
                            "parameter_type": 3
                        }
                    },
                    "varname": "function"
                }
            },
            {
                "box": {
                    "id": "obj-16",
                    "maxclass": "number",
                    "numinlets": 1,
                    "numoutlets": 2,
                    "outlettype": [ "", "bang" ],
                    "parameter_enable": 0,
                    "patching_rect": [ 516.0, 378.0, 50.0, 22.0 ]
                }
            },
            {
                "box": {
                    "id": "obj-14",
                    "maxclass": "number",
                    "numinlets": 1,
                    "numoutlets": 2,
                    "outlettype": [ "", "bang" ],
                    "parameter_enable": 0,
                    "patching_rect": [ 810.0, 383.0, 50.0, 22.0 ]
                }
            },
            {
                "box": {
                    "id": "obj-12",
                    "maxclass": "newobj",
                    "numinlets": 1,
                    "numoutlets": 1,
                    "outlettype": [ "" ],
                    "patching_rect": [ 696.5, 580.0, 67.0, 22.0 ],
                    "text": "mousefilter"
                }
            },
            {
                "box": {
                    "id": "obj-11",
                    "maxclass": "newobj",
                    "numinlets": 1,
                    "numoutlets": 1,
                    "outlettype": [ "" ],
                    "patching_rect": [ 666.5, 530.5, 88.0, 22.0 ],
                    "text": "prepend speak"
                }
            },
            {
                "box": {
                    "id": "obj-10",
                    "maxclass": "newobj",
                    "numinlets": 1,
                    "numoutlets": 2,
                    "outlettype": [ "", "" ],
                    "patching_rect": [ 666.5, 632.5, 92.0, 22.0 ],
                    "text": "maxess.speech"
                }
            },
            {
                "box": {
                    "filename": "none",
                    "id": "obj-9",
                    "maxclass": "newobj",
                    "numinlets": 1,
                    "numoutlets": 1,
                    "outlettype": [ "" ],
                    "patching_rect": [ 656.0, 415.0, 21.0, 22.0 ],
                    "saved_object_attributes": {
                        "parameter_enable": 0
                    },
                    "text": "v8",
                    "textfile": {
                        "text": "function valuechanged(data) {\n    post(\"parameter value changed: \" + data.name + \"\\n\");\n    post(\"new value: \" + data.value + \"\\n\");\n    post(typeof(data.value) + \"\\n\");\n    for(let i in data.value)\n    {\n        post(i + \" \" + data.value[i] + \"\\n\");\n    }\n\n\n    outlet(0, data.name + \" \" + data.value);\n    \n}\n\nnew ParameterListener(\"rate\", valuechanged);\n\nnew ParameterListener(\"keyboard-1\", valuechanged);\n\nnew ParameterListener(\"fn\", valuechanged);",
                        "filename": "none",
                        "flags": 0,
                        "embed": 1,
                        "autowatch": 1
                    },
                    "varname": "v8_AA"
                }
            },
            {
                "box": {
                    "id": "obj-8",
                    "maxclass": "kslider",
                    "numinlets": 2,
                    "numoutlets": 2,
                    "outlettype": [ "int", "int" ],
                    "parameter_enable": 1,
                    "patching_rect": [ 514.5, 312.5, 336.0, 53.0 ],
                    "saved_attribute_attributes": {
                        "valueof": {
                            "parameter_invisible": 1,
                            "parameter_longname": "keyboard-1",
                            "parameter_modmode": 0,
                            "parameter_shortname": "keyboard-1",
                            "parameter_type": 3
                        }
                    },
                    "varname": "kslider"
                }
            },
            {
                "box": {
                    "format": 6,
                    "id": "obj-7",
                    "maxclass": "flonum",
                    "numinlets": 1,
                    "numoutlets": 2,
                    "outlettype": [ "", "bang" ],
                    "parameter_enable": 0,
                    "patching_rect": [ 446.0, 179.0, 50.0, 22.0 ]
                }
            },
            {
                "box": {
                    "id": "obj-5",
                    "maxclass": "message",
                    "numinlets": 2,
                    "numoutlets": 1,
                    "outlettype": [ "" ],
                    "patching_rect": [ 454.0, 238.0, 46.0, 22.0 ],
                    "text": "rate $1"
                }
            },
            {
                "box": {
                    "fontface": 0,
                    "fontname": "Arial",
                    "fontsize": 12.0,
                    "id": "obj-3",
                    "maxclass": "number~",
                    "mode": 2,
                    "numinlets": 2,
                    "numoutlets": 2,
                    "outlettype": [ "signal", "float" ],
                    "patching_rect": [ 354.0, 419.0, 56.0, 22.0 ],
                    "sig": 0.0
                }
            },
            {
                "box": {
                    "id": "obj-2",
                    "maxclass": "newobj",
                    "numinlets": 2,
                    "numoutlets": 1,
                    "outlettype": [ "signal" ],
                    "patcher": {
                        "fileversion": 1,
                        "appversion": {
                            "major": 9,
                            "minor": 1,
                            "revision": 3,
                            "architecture": "x64",
                            "modernui": 1
                        },
                        "classnamespace": "dsp.gen",
                        "rect": [ 84.0, 144.0, 600.0, 450.0 ],
                        "boxes": [
                            {
                                "box": {
                                    "id": "obj-5",
                                    "maxclass": "newobj",
                                    "numinlets": 0,
                                    "numoutlets": 1,
                                    "outlettype": [ "" ],
                                    "patching_rect": [ 314.0, 201.0, 67.0, 22.0 ],
                                    "text": "param rate"
                                }
                            },
                            {
                                "box": {
                                    "id": "obj-1",
                                    "maxclass": "newobj",
                                    "numinlets": 0,
                                    "numoutlets": 1,
                                    "outlettype": [ "" ],
                                    "patching_rect": [ 50.0, 14.0, 28.0, 22.0 ],
                                    "text": "in 1"
                                }
                            },
                            {
                                "box": {
                                    "id": "obj-2",
                                    "maxclass": "newobj",
                                    "numinlets": 0,
                                    "numoutlets": 1,
                                    "outlettype": [ "" ],
                                    "patching_rect": [ 305.0, 14.0, 28.0, 22.0 ],
                                    "text": "in 2"
                                }
                            },
                            {
                                "box": {
                                    "id": "obj-3",
                                    "maxclass": "newobj",
                                    "numinlets": 2,
                                    "numoutlets": 1,
                                    "outlettype": [ "" ],
                                    "patching_rect": [ 176.0, 149.0, 29.5, 22.0 ],
                                    "text": "+"
                                }
                            },
                            {
                                "box": {
                                    "id": "obj-4",
                                    "maxclass": "newobj",
                                    "numinlets": 1,
                                    "numoutlets": 0,
                                    "patching_rect": [ 176.0, 418.0, 35.0, 22.0 ],
                                    "text": "out 1"
                                }
                            }
                        ],
                        "lines": [
                            {
                                "patchline": {
                                    "destination": [ "obj-3", 0 ],
                                    "source": [ "obj-1", 0 ]
                                }
                            },
                            {
                                "patchline": {
                                    "destination": [ "obj-3", 1 ],
                                    "source": [ "obj-2", 0 ]
                                }
                            },
                            {
                                "patchline": {
                                    "destination": [ "obj-4", 0 ],
                                    "source": [ "obj-3", 0 ]
                                }
                            },
                            {
                                "patchline": {
                                    "destination": [ "obj-4", 0 ],
                                    "source": [ "obj-5", 0 ]
                                }
                            }
                        ]
                    },
                    "patching_rect": [ 347.0, 328.0, 36.0, 22.0 ],
                    "text": "gen~",
                    "varname": "gen~_AA"
                }
            },
            {
                "box": {
                    "id": "obj-1",
                    "maxclass": "live.dial",
                    "numinlets": 1,
                    "numoutlets": 2,
                    "outlettype": [ "", "float" ],
                    "param_connect": "gen~_AA::rate",
                    "parameter_enable": 1,
                    "patching_rect": [ 248.5, 129.5, 41.0, 48.0 ],
                    "saved_attribute_attributes": {
                        "valueof": {
                            "parameter_initial": [ 0.0 ],
                            "parameter_initial_enable": 1,
                            "parameter_longname": "rate",
                            "parameter_modmode": 3,
                            "parameter_shortname": "rate",
                            "parameter_type": 0,
                            "parameter_unitstyle": 1
                        }
                    },
                    "varname": "xyz"
                }
            }
        ],
        "lines": [
            {
                "patchline": {
                    "destination": [ "obj-12", 0 ],
                    "source": [ "obj-11", 0 ]
                }
            },
            {
                "patchline": {
                    "destination": [ "obj-10", 0 ],
                    "source": [ "obj-12", 0 ]
                }
            },
            {
                "patchline": {
                    "destination": [ "obj-17", 0 ],
                    "source": [ "obj-19", 0 ]
                }
            },
            {
                "patchline": {
                    "destination": [ "obj-3", 0 ],
                    "source": [ "obj-2", 0 ]
                }
            },
            {
                "patchline": {
                    "destination": [ "obj-2", 0 ],
                    "source": [ "obj-5", 0 ]
                }
            },
            {
                "patchline": {
                    "destination": [ "obj-5", 0 ],
                    "source": [ "obj-7", 0 ]
                }
            },
            {
                "patchline": {
                    "destination": [ "obj-14", 0 ],
                    "source": [ "obj-8", 1 ]
                }
            },
            {
                "patchline": {
                    "destination": [ "obj-16", 0 ],
                    "source": [ "obj-8", 0 ]
                }
            },
            {
                "patchline": {
                    "destination": [ "obj-11", 0 ],
                    "source": [ "obj-9", 0 ]
                }
            }
        ],
        "parameters": {
            "obj-1": [ "rate", "rate", 0 ],
            "obj-17": [ "fn", "fn", 0 ],
            "obj-8": [ "keyboard-1", "keyboard-1", 0 ],
            "inherited_shortname": 1
        },
        "autosave": 0
    }
}